PathFileType	4	(X/Y/Z)	63_1_39_p0_0-136_filt_butterworth.trc
DataRate	CameraRate	NumFrames	NumMarkers	Units	OrigDataRate	OrigDataStartFrame	OrigNumFrames
60.0	60.0	6	27	m	60.0	119	136
Frame#	Time	RHip			RKnee			RAnkle			RBigToe			RSmallToe			RHeel			LHip			LKnee			LAnkle			LBigToe			LSmallToe			LHeel			Neck			Head			Nose			RShoulder			RElbow			RWrist			RThumb			RIndex			RPinky			LShoulder			LElbow			LWrist			LThumb			LIndex			LPinky			
		X1	Y1	Z1	X2	Y2	Z2	X3	Y3	Z3	X4	Y4	Z4	X5	Y5	Z5	X6	Y6	Z6	X7	Y7	Z7	X8	Y8	Z8	X9	Y9	Z9	X10	Y10	Z10	X11	Y11	Z11	X12	Y12	Z12	X13	Y13	Z13	X14	Y14	Z14	X15	Y15	Z15	X16	Y16	Z16	X17	Y17	Z17	X18	Y18	Z18	X19	Y19	Z19	X20	Y20	Z20	X21	Y21	Z21	X22	Y22	Z22	X23	Y23	Z23	X24	Y24	Z24	X25	Y25	Z25	X26	Y26	Z26	X27	Y27	Z27	
119	1.9833333333333332	0.3157403569258511	0.5372408782350264	0.7810195265888349	0.322506292693281	0.7206920027639306	1.1669144973242764	0.3190878122326257	0.895175183886133	1.582530019469923	0.3154868482611058	0.67015629215882	1.6155222518841115	0.3667286474739755	0.6896829391270898	1.6062501901549036	0.30918726055975987	0.9488452982927466	1.6293919855894599	0.13236071736088284	0.5331019976741118	0.8017791257420768	0.1544506021336039	0.6589831691579645	1.1617363754900778	0.16343442761510635	0.8784685611454227	1.5674655324157767	0.15080940129731957	0.6789637449449336	1.5980408048990435	0.0978103550029424	0.7326214663335922	1.6012969970705517	0.183894344676933	0.9604722591776991	1.633221095085165	0.19865707448437045	0.38272581092430435	0.22819219192509071	0.19610109886273158	0.3153244832623573	-0.004703139575829905	0.1854964252633975	0.28115890503651675	0.10817049680369298	0.3418727718258874	0.3903356891769422	0.3277247972450531	0.3479714119414602	0.42704376940405275	0.591285167393258	0.24863915321060734	0.38049945501873617	0.7801365447221819	0.18116870748911718	0.4172615971318304	0.8590505547875467	0.17528222578699387	0.42504444010558257	0.8657815297794943	0.1739358560888105	0.43338999911711407	0.8692070953531199	0.045613887659251055	0.4447322847940812	0.3243236998544885	0.03972930664282785	0.46122116195589535	0.6012030884151621	0.12984648459770384	0.3678828670087268	0.775418531702214	0.21947646773025434	0.3487234494289662	0.811411809661092	0.21671614124610342	0.3916182561323932	0.8584479798355036	0.17898879505666446	0.4326616014630319	0.8768241061789435
120	2.0	0.3158367019869229	0.5371881491036979	0.7818152087435155	0.3210556309036478	0.7205619981878243	1.167778337202503	0.3183978764021334	0.8996443963720915	1.584876747905085	0.31549970022699575	0.6702173122797874	1.6154164950918228	0.3657922462347804	0.6953032395069578	1.6063223765380488	0.30917574465748826	0.9487012699456863	1.6294014139225261	0.13127263499720804	0.5328223509667251	0.8022466805007494	0.15470126685557356	0.6591228300976315	1.1625581695230685	0.16325726498655393	0.8781975576781595	1.5673079241894627	0.14967129876139504	0.6785438983947929	1.5979326560830205	0.09781137646239021	0.7323100489732361	1.6010806035080274	0.18480471479126712	0.9645863811399905	1.6343850181557364	0.19949704600086723	0.3792240548506582	0.22863579261628603	0.19685340332951065	0.3119561476190934	-0.003981390199779034	0.18593404279629783	0.2823252670998888	0.10800085767071807	0.34156888195549934	0.3895904568852222	0.32651654754462967	0.3477940120718815	0.4237843455380236	0.5883765449303454	0.24804636096535093	0.38399938593694605	0.7760540278202719	0.1826823813232145	0.41141874608817586	0.8522043497558031	0.17535348584168367	0.42448254917742323	0.8628132280706357	0.17307452904850198	0.43648509886632586	0.8659055731245617	0.045386471393963505	0.44386374373170134	0.32524504202985194	0.038527627627357106	0.4607423788371425	0.6011146029076618	0.12589586137130948	0.38176898900580525	0.7759172959972876	0.21791981262913787	0.3477074997947246	0.8068636442920563	0.2171831466411211	0.3962496465178602	0.8542744720112374	0.18058052738671299	0.4339249847460412	0.873713519871771
121	2.0166666666666666	0.31584361690842727	0.5372450721942394	0.7822227843315486	0.3200076934863614	0.7202331695778708	1.1701483678887143	0.3181215166294185	0.9014622064661314	1.5863053543557564	0.3154899733589892	0.6703206200104097	1.6152815922909982	0.3651378284851911	0.7001533458315704	1.6063486370902753	0.309168333466735	0.9485937836731323	1.6294253997318968	0.13030594757593086	0.5326879355553885	0.8023110760681802	0.15486330091820477	0.6592022706793395	1.1626346122953575	0.16316706817654036	0.8781113519187345	1.567272364579496	0.14810829778154203	0.6782622595759507	1.5979061988531351	0.09782358699192661	0.7320287379828021	1.6005093604287535	0.1852464164928344	0.9660420849908004	1.6348641143965983	0.19982636597368716	0.3777858434013036	0.22875125320571071	0.19783449525449764	0.3075442249025316	-0.003073114905438461	0.1859591401403038	0.2822288997955442	0.10799622372728243	0.34141851009976815	0.38905541417493145	0.3255941147593386	0.3473873382432041	0.42205725588982046	0.5853628474328063	0.2478496823185243	0.38451363032698516	0.7721157506388208	0.18451172503630847	0.40501564143493257	0.8452520747677232	0.17665054325930937	0.42373610617655416	0.8603993174618724	0.17339862949082047	0.4373438122638398	0.8626209068014663	0.04544359799850529	0.4439706411299144	0.325587823512305	0.03689634496004554	0.46048609662609113	0.6010233803768349	0.12374504051576207	0.38977373460232706	0.7754456207777628	0.21774134791718328	0.34330363009935705	0.8027969365130125	0.220161941442586	0.3944954627021351	0.8481331752535768	0.18152246556078414	0.4296669295372971	0.8715667446945029
122	2.033333333333333	0.31576196463725104	0.5374537497491914	0.7825918428684236	0.3196592492076508	0.7200511916165796	1.173191015845501	0.3180791666829624	0.901735491963803	1.5868353173146335	0.31541282701032997	0.6705924810756407	1.6152862598621742	0.36512033278249073	0.7019304567462046	1.6062605873791362	0.3091738197673528	0.948567830379587	1.6294824107070425	0.12986214567612347	0.5326311756924845	0.8022935079847949	0.15504160406968337	0.6595359292096721	1.16300405475323	0.16315621571913505	0.878132718792702	1.5674217362879832	0.14687000725963983	0.6781575050964433	1.5979049111642918	0.09789408870785382	0.7317424403807338	1.5993657942739519	0.18539830620529077	0.9659114761768108	1.6349190767275017	0.19979177956190403	0.3776607134535143	0.22834730999517233	0.1985815854878019	0.3041795379892738	-0.0024052682129816977	0.1858994650456591	0.28178911235356713	0.10798731678536969	0.34146637251516393	0.3888697409059573	0.3252184648307213	0.34717089319516814	0.42131513474450744	0.5832610525184545	0.24761874014608326	0.38049644144956596	0.7684762528062855	0.18637304837924168	0.4009930144868761	0.8405748503978354	0.17867186938934068	0.42306756060424006	0.8588700370171871	0.1746553925468686	0.4371243064959981	0.8603552012845644	0.04554022920248433	0.44426799893188956	0.32562827358065743	0.035569409000917464	0.4604297106592134	0.600958724847903	0.12318705200259439	0.39168083661904934	0.7742365673458724	0.2184249081267447	0.338899433902552	0.8002020633632899	0.22392669968016574	0.3897851001058185	0.8423334546086756	0.18137282640275507	0.42303794065909334	0.8702148065936656
123	2.05	0.31564307357474175	0.5377954193503924	0.783189718999562	0.3196898016452306	0.7201306835303267	1.175233980687084	0.31807490227693147	0.9017334473221158	1.5868934133952164	0.3152141923005512	0.671106198059293	1.6157852721594375	0.3657231494195684	0.7000702027303249	1.6059881884638172	0.309196215216399	0.9486257533334279	1.6295787782341191	0.12975564562064568	0.532623435744529	0.8022896819955799	0.15526902867758738	0.6602916009397634	1.1643156212840324	0.16318337635541885	0.8781710087780668	1.5676554736324126	0.14634022384509274	0.6781423151332756	1.5978973017052307	0.09806023951385709	0.7313725515472085	1.5979340837786082	0.185423254530414	0.965488414236125	1.6348411976744612	0.19962189006082814	0.37782778370085457	0.2273285152522389	0.19888033454374826	0.30281470954298906	-0.002154533380972742	0.18588755395249099	0.28146456833382477	0.10792234387064906	0.34148230264174817	0.38884894575526774	0.32520084440180275	0.34706816551590275	0.4211862630543539	0.5825434020400011	0.24688416412117675	0.37115043400699843	0.7656559839193295	0.18777512672220137	0.39962707028900485	0.8392548665726397	0.18033747273951697	0.42267825640066503	0.8583253823404495	0.17618719411985584	0.4369791535915718	0.8594509256335199	0.04559369959891868	0.4444475444390043	0.3256246114256006	0.03506972460509408	0.46051044690352827	0.6009108346477602	0.12348025402482815	0.3907314740254609	0.7731257018630353	0.2196116640875672	0.33648991475872375	0.7992411629028658	0.22683645849395961	0.3842697192910547	0.8392780351432315	0.1807700418807333	0.4173397248582228	0.869604722883446
124	2.066666666666667	0.31557842418191684	0.5381026834173174	0.7840071577006804	0.3197748132119473	0.7204345726090954	1.1756000409735166	0.3181204874707916	0.9014213012499154	1.586716858817157	0.314928024525925	0.6716998896919216	1.6170035409897383	0.3664832367658985	0.6952030035514202	1.605593999988928	0.3092223257897023	0.9487308775364562	1.6296735846231303	0.12981419909918723	0.5326826362827658	0.8022797492877616	0.1553309950588092	0.6612301182690077	1.1663554419407207	0.1632059777595855	0.8781532077012271	1.567818261713198	0.14628197047101707	0.6781399128525862	1.5978844458314765	0.09827839910179276	0.7310019817542694	1.596863593692059	0.185380942175098	0.9651485237995004	1.6347135082287436	0.19945534493377867	0.3778640451170674	0.22601945565402312	0.19888581217222376	0.3027624292377686	-0.0021661443265300574	0.18591746392815392	0.2813962294001639	0.10791401055018932	0.3410482811434479	0.38874179982887974	0.32530088282964464	0.3466080243736909	0.4213915204077402	0.5829637875973344	0.2453760177599781	0.35888776058354355	0.7638609847466376	0.18831475132351483	0.3995683425955426	0.8407022489237653	0.18111438466595742	0.42259314256509606	0.8587338409524525	0.17725722801884952	0.43676920060839497	0.8594142833146622	0.04560200756095056	0.44444940439682523	0.3255781922484381	0.035522793161421526	0.46079682626863994	0.6008494961373063	0.12401145209034052	0.3896590009069401	0.7725824142587254	0.22067375677881954	0.3361290025116386	0.79961749447077	0.22743088850771295	0.37946091247074254	0.8399184758183955	0.18042227915649886	0.4142417222155426	0.8696026441993686
